<svg width="32" height="32" viewBox="0 0 32 32" fill="none" xmlns="http://www.w3.org/2000/svg">
<path d="M6.48466 21.2714C9.65286 25.0443 13.4667 28.0149 17.8196 30.1169C19.4769 30.8993 21.6934 31.8276 24.1627 31.9867C24.3158 31.9934 24.4622 32 24.6153 32C26.2726 32 27.6038 31.4298 28.6887 30.2561C28.6953 30.2495 28.7087 30.2362 28.7153 30.223C29.1014 29.7588 29.5406 29.3411 29.9999 28.8968C30.3127 28.5984 30.6322 28.2868 30.9384 27.9685C32.3561 26.4965 32.3561 24.6266 30.9251 23.201L26.9249 19.2159C26.246 18.5131 25.434 18.1417 24.582 18.1417C23.7301 18.1417 22.9114 18.5131 22.2125 19.2093L19.8297 21.5831C19.6101 21.4571 19.3838 21.3444 19.1708 21.2383C18.9045 21.1057 18.6583 20.9797 18.4386 20.8404C16.2688 19.4679 14.2987 17.6776 12.415 15.3767C11.4633 14.1765 10.8243 13.1687 10.3783 12.1409C11.004 11.5773 11.5897 10.9872 12.1555 10.4103C12.3551 10.2047 12.5615 9.99917 12.7678 9.79362C13.4866 9.0775 13.8727 8.24865 13.8727 7.40655C13.8727 6.56444 13.4933 5.7356 12.7678 5.01948L10.7844 3.04351C10.5514 2.81144 10.3318 2.58599 10.1055 2.35392C9.66617 1.90303 9.20691 1.43887 8.75431 1.02114C8.06876 0.35143 7.26339 0 6.41144 0C5.56614 0 4.75413 0.35143 4.04195 1.02777L1.55264 3.50767C0.647444 4.40945 0.134941 5.50352 0.0284467 6.77C-0.0980151 8.35474 0.194844 10.039 0.953615 12.0746C2.11839 15.2242 3.87555 18.1484 6.48466 21.2714ZM1.65248 6.90924C1.73235 6.02735 2.0718 5.29134 2.71077 4.65479L5.18676 2.18815C5.5728 1.81683 5.99878 1.62453 6.41144 1.62453C6.81745 1.62453 7.23011 1.81683 7.6095 2.20141C8.05544 2.61252 8.47477 3.04351 8.92737 3.50104C9.15367 3.73311 9.38662 3.96519 9.61958 4.2039L11.603 6.17986C12.0157 6.59097 12.2287 7.0087 12.2287 7.41981C12.2287 7.83092 12.0157 8.24865 11.603 8.65976C11.3967 8.86531 11.1904 9.0775 10.984 9.28305C10.365 9.90634 9.78598 10.4965 9.14701 11.0601L9.11373 11.0932C8.56129 11.6436 8.64782 12.1674 8.78094 12.5653C8.78759 12.5852 8.79425 12.5984 8.8009 12.6183C9.31341 13.845 10.0256 15.012 11.1371 16.4045C13.1339 18.8579 15.2371 20.7609 17.5534 22.2263C17.8396 22.4119 18.1458 22.5578 18.432 22.7037C18.6982 22.8363 18.9445 22.9623 19.1641 23.1015C19.1907 23.1148 19.2107 23.1281 19.2373 23.1413C19.457 23.254 19.67 23.3071 19.883 23.3071C20.4154 23.3071 20.7615 22.9689 20.8747 22.8562L23.364 20.3763C23.75 19.9917 24.1693 19.7862 24.582 19.7862C25.0879 19.7862 25.5005 20.0978 25.7601 20.3763L29.7736 24.368C30.5723 25.1637 30.5656 26.0257 29.7536 26.8678C29.4741 27.1662 29.1812 27.4513 28.8684 27.7497C28.4025 28.2006 27.9166 28.6647 27.4773 29.1886C26.7119 30.0108 25.8 30.3954 24.6219 30.3954C24.5088 30.3954 24.389 30.3887 24.2758 30.3821C22.0927 30.2429 20.0627 29.3941 18.5385 28.6714C14.3985 26.6755 10.7644 23.8442 7.74927 20.2503C5.26663 17.2731 3.596 14.5014 2.49112 11.5309C1.80557 9.70742 1.54599 8.24202 1.65248 6.90924Z" fill="black"/>
</svg>
